# xmcd
#
# Track frame offsets:
#	182
#	12737
#	22665
#	35605
#	48705
#	61765
#	73077
#	85742
#	96245
#	107757
#	119770
#	132235
#	144910
#	159037
#	167340
#	189195
#
# Disc length: 2699 seconds
# Revision: 3
# Processed by: cddbd v1.5.2PL0 Copyright (c) Steve Scherf et al.
# Submitted via: dBpowerAMP V12.0
#
DISCID=cc0a8910
DTITLE=Elmore James - The Sky Is Crying
DYEAR=1996
DGENRE=Blues
TTITLE0=The Sky Is Crying
TTITLE1=Bobby's Rock
TTITLE2=Held My Baby Last Night
TTITLE3=Dust My Broom
TTITLE4=Baby Please Set A Date
TTITLE5=Rollin' And Tumblin'
TTITLE6=I'm Worried
TTITLE7=Done Somebody Wrong
TTITLE8=Fine Little Mama
TTITLE9=I Can't Stop Loving You
TTITLE10=Early One Morning
TTITLE11=I Need You Baby
TTITLE12=Strange Angels
TTITLE13=She Done Moved
TTITLE14=Something Inside Of Me
TTITLE15=Stranger Blues
EXTD=
EXTT0=
EXTT1=
EXTT2=
EXTT3=
EXTT4=
EXTT5=
EXTT6=
EXTT7=
EXTT8=
EXTT9=
EXTT10=
EXTT11=
EXTT12=
EXTT13=
EXTT14=
EXTT15=
PLAYORDER=
